<svg width="23" height="20" viewBox="0 0 23 20" fill="none" xmlns="http://www.w3.org/2000/svg">
<path d="M0.264375 4.23938C-0.088125 3.88688 -0.088125 3.31688 0.264375 2.96813L2.96438 0.264375C3.31688 -0.088125 3.88687 -0.088125 4.23563 0.264375C4.58437 0.616875 4.58813 1.18688 4.23563 1.53563L3.07313 2.69813H18.2981C19.6219 2.69813 20.6981 3.77437 20.6981 5.09812V11.7806L20.5069 11.5894C19.4531 10.5356 17.7431 10.5356 16.6894 11.5894C15.6694 12.6094 15.6356 14.2369 16.5844 15.2981H19.1231L17.9606 14.1356C17.6081 13.7831 17.6081 13.2131 17.9606 12.8644C18.3131 12.5156 18.8831 12.5119 19.2319 12.8644L21.9319 15.5644C22.2844 15.9169 22.2844 16.4869 21.9319 16.8356L19.2319 19.5356C18.8794 19.8881 18.3094 19.8881 17.9606 19.5356C17.6119 19.1831 17.6081 18.6131 17.9606 18.2644L19.1231 17.1019H3.89438C2.57063 17.1019 1.49437 16.0256 1.49437 14.7019V8.01937L1.68563 8.21063C2.73938 9.26438 4.44938 9.26438 5.50313 8.21063C6.52313 7.19063 6.55688 5.56313 5.60813 4.50188H3.06938L4.23188 5.66438C4.58438 6.01688 4.58438 6.58687 4.23188 6.93563C3.87938 7.28438 3.30938 7.28813 2.96063 6.93563L0.264375 4.23938ZM14.7019 9.90187C14.7019 7.91437 13.0894 6.30188 11.1019 6.30188C9.11438 6.30188 7.50188 7.91437 7.50188 9.90187C7.50188 11.8894 9.11438 13.5019 11.1019 13.5019C13.0894 13.5019 14.7019 11.8894 14.7019 9.90187ZM18.0019 7.48313C18.1669 7.50188 18.3019 7.36688 18.3019 7.20188V5.40188C18.3019 5.23688 18.1669 5.10188 18.0019 5.10188H16.2019C16.0369 5.10188 15.8981 5.23688 15.9206 5.40188C16.0556 6.48938 16.9181 7.34813 18.0019 7.48313ZM4.20188 12.3206C4.03688 12.3019 3.90188 12.4369 3.90188 12.6019V14.4019C3.90188 14.5669 4.03688 14.7019 4.20188 14.7019H6.00188C6.16688 14.7019 6.30563 14.5669 6.28313 14.4019C6.14813 13.3144 5.28563 12.4556 4.20188 12.3206Z" fill="#1F2937"/>
</svg>
