<svg width="20" height="22" viewBox="0 0 20 22" fill="none" xmlns="http://www.w3.org/2000/svg">
<path fill-rule="evenodd" clip-rule="evenodd" d="M5.65785 0.0418114C5.30216 -0.0209313 4.9376 -0.0129925 4.58498 0.0651743C4.23236 0.143341 3.89859 0.290205 3.60273 0.497378C3.30688 0.704551 3.05473 0.967976 2.86069 1.27261C2.66666 1.57724 2.53453 1.91711 2.47185 2.27281L0.0418532 16.0598C-0.0848826 16.778 0.0788577 17.5171 0.497057 18.1146C0.915257 18.7121 1.55366 19.119 2.27185 19.2458L14.0899 21.3298C14.8079 21.4563 15.5468 21.2924 16.144 20.8742C16.7413 20.456 17.148 19.8178 17.2749 19.0998L19.7069 5.31181C19.7696 4.95612 19.7617 4.59156 19.6835 4.23894C19.6053 3.88632 19.4585 3.55255 19.2513 3.25669C19.0441 2.96084 18.7807 2.70869 18.4761 2.51465C18.1714 2.32061 17.8316 2.18848 17.4759 2.12581L5.65785 0.0418114ZM6.93385 4.32881C6.83599 4.30959 6.73527 4.31008 6.6376 4.33026C6.53993 4.35043 6.44727 4.38989 6.36503 4.44631C6.28279 4.50273 6.21263 4.57499 6.15865 4.65885C6.10468 4.74272 6.06797 4.8365 6.05068 4.93473C6.03339 5.03295 6.03586 5.13364 6.05795 5.23089C6.08005 5.32815 6.12131 5.42002 6.17934 5.50113C6.23737 5.58225 6.311 5.65097 6.39591 5.70329C6.48082 5.7556 6.57531 5.79046 6.67385 5.80581L14.5519 7.19581C14.7478 7.23029 14.9495 7.1855 15.1125 7.07129C15.2755 6.95708 15.3864 6.78281 15.4209 6.58681C15.4553 6.39082 15.4105 6.18915 15.2963 6.02618C15.1821 5.86321 15.0078 5.75229 14.8119 5.71781L6.93385 4.32881ZM5.37085 8.87681C5.40548 8.68096 5.51648 8.50687 5.67945 8.39285C5.84241 8.27884 6.04399 8.23422 6.23985 8.26881L14.1179 9.65781C14.2164 9.67317 14.3109 9.70802 14.3958 9.76034C14.4807 9.81265 14.5543 9.88138 14.6124 9.96249C14.6704 10.0436 14.7117 10.1355 14.7338 10.2327C14.7558 10.33 14.7583 10.4307 14.741 10.5289C14.7237 10.6271 14.687 10.7209 14.6331 10.8048C14.5791 10.8886 14.5089 10.9609 14.4267 11.0173C14.3444 11.0737 14.2518 11.1132 14.1541 11.1334C14.0564 11.1535 13.9557 11.154 13.8579 11.1348L5.97885 9.74481C5.7832 9.71018 5.60929 9.59932 5.4953 9.43658C5.38131 9.27384 5.33655 9.07252 5.37085 8.87681ZM5.54485 12.2068C5.44699 12.1876 5.34628 12.1881 5.2486 12.2083C5.15093 12.2284 5.05827 12.2679 4.97603 12.3243C4.89379 12.3807 4.82363 12.453 4.76965 12.5369C4.71567 12.6207 4.67897 12.7145 4.66168 12.8127C4.64439 12.911 4.64686 13.0116 4.66895 13.1089C4.69105 13.2061 4.73231 13.298 4.79034 13.3791C4.84837 13.4602 4.922 13.529 5.00691 13.5813C5.09182 13.6336 5.18631 13.6685 5.28485 13.6838L10.2089 14.5528C10.4048 14.5873 10.6065 14.5425 10.7695 14.4283C10.9325 14.3141 11.0434 14.1398 11.0779 13.9438C11.1123 13.7478 11.0675 13.5462 10.9533 13.3832C10.8391 13.2202 10.6648 13.1093 10.4689 13.0748L5.54485 12.2068Z" fill="#1F2937"/>
</svg>
