<svg width="20" height="18" viewBox="0 0 20 18" fill="none" xmlns="http://www.w3.org/2000/svg">
<path d="M14 4.66045e-09C14.7652 -4.26217e-05 15.5015 0.292325 16.0583 0.817284C16.615 1.34224 16.9501 2.06011 16.995 2.824L17 3V5C17.7652 4.99996 18.5015 5.29233 19.0583 5.81728C19.615 6.34224 19.9501 7.06011 19.995 7.824L20 8V12C20 12.7652 19.7077 13.5015 19.1827 14.0583C18.6578 14.615 17.9399 14.9501 17.176 14.995L17 15V15.966C17 16.986 15.857 17.56 15.046 16.999L14.95 16.927L12.638 15H9C8.26301 15 7.55179 14.7288 7.002 14.238L6.862 14.104L5 15.5C4.209 16.093 3.094 15.575 3.006 14.621L3 14.5V13C2.23479 13 1.49849 12.7077 0.941739 12.1827C0.384993 11.6578 0.0498925 10.9399 0.00500012 10.176L4.66045e-09 10V3C-4.26217e-05 2.23479 0.292325 1.49849 0.817284 0.941739C1.34224 0.384993 2.06011 0.0498925 2.824 0.00500012L3 4.66045e-09H14ZM17 7H9C8.73478 7 8.48043 7.10536 8.29289 7.29289C8.10536 7.48043 8 7.73478 8 8V12C8 12.2652 8.10536 12.5196 8.29289 12.7071C8.48043 12.8946 8.73478 13 9 13H12.638C13.1058 13.0002 13.5587 13.1644 13.918 13.464L15.006 14.37C15.0385 13.9962 15.21 13.6481 15.4866 13.3945C15.7631 13.1408 16.1247 13.0001 16.5 13H17C17.2652 13 17.5196 12.8946 17.7071 12.7071C17.8946 12.5196 18 12.2652 18 12V8C18 7.73478 17.8946 7.48043 17.7071 7.29289C17.5196 7.10536 17.2652 7 17 7ZM14 2H3C2.73478 2 2.48043 2.10536 2.29289 2.29289C2.10536 2.48043 2 2.73478 2 3V10C2 10.2652 2.10536 10.5196 2.29289 10.7071C2.48043 10.8946 2.73478 11 3 11H3.5C3.89782 11 4.27936 11.158 4.56066 11.4393C4.84196 11.7206 5 12.1022 5 12.5V13L6.01 12.243C6.00338 12.1622 6.00005 12.0811 6 12V8C6 7.20435 6.31607 6.44129 6.87868 5.87868C7.44129 5.31607 8.20435 5 9 5H15V3C15 2.73478 14.8946 2.48043 14.7071 2.29289C14.5196 2.10536 14.2652 2 14 2Z" fill="#1F2937"/>
</svg>
