<svg width="9" height="5" viewBox="0 0 9 5" fill="none" xmlns="http://www.w3.org/2000/svg">
<path d="M8.45 0.850013L4.825 4.47501C4.74167 4.55835 4.65833 4.61668 4.575 4.65001C4.49167 4.68335 4.4 4.70001 4.3 4.70001C4.2 4.70001 4.10833 4.68335 4.025 4.65001C3.94167 4.61668 3.85833 4.55835 3.775 4.47501L0.15 0.850013C0.1 0.800013 0.0626668 0.745679 0.0380001 0.687013C0.0133334 0.628346 0.000666667 0.566012 0 0.500012C0 0.366679 0.046 0.250012 0.138 0.150012C0.23 0.0500121 0.350667 1.23978e-05 0.5 1.23978e-05H8.1C8.25 1.23978e-05 8.371 0.0500121 8.463 0.150012C8.555 0.250012 8.60067 0.366679 8.6 0.500012C8.6 0.533346 8.55 0.650013 8.45 0.850013Z" fill="#1F2937"/>
</svg>
