<svg width="12" height="7" viewBox="0 0 12 7" fill="none" xmlns="http://www.w3.org/2000/svg">
<path d="M11.65 2.94154L8.86 0.151543C8.79045 0.0800948 8.70117 0.0310242 8.60357 0.0106113C8.50597 -0.00980157 8.4045 -0.000627518 8.31215 0.0369585C8.21979 0.0745445 8.14075 0.138833 8.08515 0.221597C8.02954 0.30436 7.99989 0.401834 8 0.501544V2.29154H1C0.45 2.29154 0 2.74154 0 3.29154C0 3.84154 0.45 4.29154 1 4.29154H8V6.08154C8 6.53154 8.54 6.75154 8.85 6.43154L11.64 3.64154C11.84 3.45154 11.84 3.13154 11.65 2.94154Z" fill="#1F2937"/>
</svg>
