<svg width="20" height="16" viewBox="0 0 20 16" fill="none" xmlns="http://www.w3.org/2000/svg">
<path d="M15 13.0625L13.1 14.9625C12.9167 15.1459 12.6833 15.2375 12.4 15.2375C12.1167 15.2375 11.8833 15.1459 11.7 14.9625C11.5167 14.7792 11.425 14.5459 11.425 14.2625C11.425 13.9792 11.5167 13.7459 11.7 13.5625L13.6 11.6625L11.7 9.76254C11.5167 9.57921 11.425 9.34587 11.425 9.06254C11.425 8.77921 11.5167 8.54587 11.7 8.36254C11.8833 8.17921 12.1167 8.08754 12.4 8.08754C12.6833 8.08754 12.9167 8.17921 13.1 8.36254L15 10.2625L16.9 8.36254C17.0833 8.17921 17.3167 8.08754 17.6 8.08754C17.8833 8.08754 18.1167 8.17921 18.3 8.36254C18.4833 8.54587 18.575 8.77921 18.575 9.06254C18.575 9.34587 18.4833 9.57921 18.3 9.76254L16.4 11.6625L18.3 13.5625C18.4833 13.7459 18.575 13.9792 18.575 14.2625C18.575 14.5459 18.4833 14.7792 18.3 14.9625C18.1167 15.1459 17.8833 15.2375 17.6 15.2375C17.3167 15.2375 17.0833 15.1459 16.9 14.9625L15 13.0625ZM14.35 3.83754L17.9 0.28754C18.1 0.0875401 18.3333 -0.00812673 18.6 0.000539935C18.8667 0.0092066 19.1 0.113207 19.3 0.31254C19.4833 0.51254 19.575 0.745873 19.575 1.01254C19.575 1.27921 19.4833 1.51254 19.3 1.71254L15.075 5.96254C14.875 6.16254 14.6417 6.26254 14.375 6.26254C14.1083 6.26254 13.875 6.16254 13.675 5.96254L11.525 3.81254C11.3417 3.62921 11.25 3.39587 11.25 3.11254C11.25 2.82921 11.3417 2.59587 11.525 2.41254C11.7083 2.22921 11.9417 2.13754 12.225 2.13754C12.5083 2.13754 12.7417 2.22921 12.925 2.41254L14.35 3.83754ZM1 10.6625H8C8.28334 10.6625 8.521 10.7585 8.713 10.9505C8.905 11.1425 9.00067 11.3799 9 11.6625C8.99934 11.9452 8.90334 12.1829 8.712 12.3755C8.52067 12.5682 8.28334 12.6639 8 12.6625H1C0.71667 12.6625 0.479337 12.5665 0.288004 12.3745C0.0966702 12.1825 0.000670115 11.9452 3.44827e-06 11.6625C-0.000663218 11.3799 0.0953369 11.1425 0.288004 10.9505C0.48067 10.7585 0.718003 10.6625 1 10.6625ZM1 2.66254H8C8.28334 2.66254 8.521 2.75854 8.713 2.95054C8.905 3.14254 9.00067 3.37987 9 3.66254C8.99934 3.94521 8.90334 4.18287 8.712 4.37554C8.52067 4.56821 8.28334 4.66387 8 4.66254H1C0.71667 4.66254 0.479337 4.56654 0.288004 4.37454C0.0966702 4.18254 0.000670115 3.94521 3.44827e-06 3.66254C-0.000663218 3.37987 0.0953369 3.14254 0.288004 2.95054C0.48067 2.75854 0.718003 2.66254 1 2.66254Z" fill="#1F2937"/>
</svg>
