<svg width="45" height="45" viewBox="0 0 45 45" fill="none" xmlns="http://www.w3.org/2000/svg">
<path d="M40 45H5C3.625 45 2.44833 44.5108 1.47 43.5325C0.491667 42.5542 0.00166667 41.3767 0 40V5C0 3.625 0.49 2.44833 1.47 1.47C2.45 0.491667 3.62667 0.00166667 5 0H40C41.375 0 42.5525 0.49 43.5325 1.47C44.5125 2.45 45.0017 3.62667 45 5V40C45 41.375 44.5108 42.5525 43.5325 43.5325C42.5542 44.5125 41.3767 45.0017 40 45ZM37.5 35H7.5V38.75H37.5V35ZM7.5 31.25H37.5V27.5H7.5V31.25ZM7.5 22.5H37.5V7.5H7.5V22.5Z" fill="#1F2937"/>
</svg>
