<svg width="20" height="20" viewBox="0 0 20 20" fill="none" xmlns="http://www.w3.org/2000/svg">
<path d="M18.0434 10.6614C17.8831 10.4789 17.7947 10.2443 17.7947 10.0014C17.7947 9.75845 17.8831 9.52385 18.0434 9.34136L19.3234 7.90136C19.4645 7.74403 19.5521 7.54606 19.5736 7.33587C19.5952 7.12567 19.5496 6.91405 19.4434 6.73136L17.4434 3.27136C17.3384 3.08888 17.1783 2.94424 16.9862 2.85805C16.7941 2.77186 16.5796 2.74852 16.3734 2.79136L14.4934 3.17136C14.2542 3.22079 14.0052 3.18095 13.7933 3.05936C13.5815 2.93777 13.4214 2.74284 13.3434 2.51136L12.7334 0.68136C12.6664 0.482739 12.5385 0.310225 12.3681 0.188202C12.1976 0.0661789 11.9931 0.000818796 11.7834 0.00135996H7.78345C7.56538 -0.0100221 7.34958 0.0502863 7.16901 0.173074C6.98844 0.295862 6.85303 0.474379 6.78345 0.68136L6.22345 2.51136C6.14545 2.74284 5.98542 2.93777 5.77356 3.05936C5.5617 3.18095 5.31266 3.22079 5.07345 3.17136L3.14345 2.79136C2.948 2.76374 2.74875 2.79458 2.57079 2.88C2.39284 2.96542 2.24415 3.10159 2.14345 3.27136L0.143447 6.73136C0.0346072 6.91201 -0.0143308 7.12245 0.00362973 7.33258C0.0215902 7.54272 0.105529 7.7418 0.243447 7.90136L1.51345 9.34136C1.67377 9.52385 1.76218 9.75845 1.76218 10.0014C1.76218 10.2443 1.67377 10.4789 1.51345 10.6614L0.243447 12.1014C0.105529 12.2609 0.0215902 12.46 0.00362973 12.6701C-0.0143308 12.8803 0.0346072 13.0907 0.143447 13.2714L2.14345 16.7314C2.24854 16.9138 2.40857 17.0585 2.6007 17.1447C2.79283 17.2309 3.00727 17.2542 3.21345 17.2114L5.09345 16.8314C5.33266 16.7819 5.5817 16.8218 5.79356 16.9434C6.00542 17.0649 6.16545 17.2599 6.24345 17.4914L6.85345 19.3214C6.92303 19.5283 7.05844 19.7069 7.23901 19.8296C7.41958 19.9524 7.63538 20.0127 7.85345 20.0014H11.8534C12.0631 20.0019 12.2676 19.9365 12.4381 19.8145C12.6085 19.6925 12.7364 19.52 12.8034 19.3214L13.4134 17.4914C13.4914 17.2599 13.6515 17.0649 13.8633 16.9434C14.0752 16.8218 14.3242 16.7819 14.5634 16.8314L16.4434 17.2114C16.6496 17.2542 16.8641 17.2309 17.0562 17.1447C17.2483 17.0585 17.4084 16.9138 17.5134 16.7314L19.5134 13.2714C19.6196 13.0887 19.6652 12.877 19.6436 12.6669C19.6221 12.4567 19.5345 12.2587 19.3934 12.1014L18.0434 10.6614ZM16.5534 12.0014L17.3534 12.9014L16.0734 15.1214L14.8934 14.8814C14.1732 14.7341 13.424 14.8565 12.788 15.2252C12.1521 15.5938 11.6736 16.1832 11.4434 16.8814L11.0634 18.0014H8.50345L8.14345 16.8614C7.9133 16.1632 7.43483 15.5738 6.79885 15.2052C6.16288 14.8365 5.41367 14.7141 4.69345 14.8614L3.51345 15.1014L2.21345 12.8914L3.01345 11.9914C3.5054 11.4413 3.77738 10.7293 3.77738 9.99136C3.77738 9.25343 3.5054 8.54138 3.01345 7.99136L2.21345 7.09136L3.49345 4.89136L4.67345 5.13136C5.39367 5.27858 6.14288 5.15624 6.77885 4.78756C7.41483 4.41888 7.8933 3.82952 8.12345 3.13136L8.50345 2.00136H11.0634L11.4434 3.14136C11.6736 3.83952 12.1521 4.42888 12.788 4.79756C13.424 5.16624 14.1732 5.28858 14.8934 5.14136L16.0734 4.90136L17.3534 7.12136L16.5534 8.02136C16.067 8.57012 15.7984 9.27804 15.7984 10.0114C15.7984 10.7447 16.067 11.4526 16.5534 12.0014ZM9.78345 6.00136C8.99232 6.00136 8.21896 6.23596 7.56117 6.67548C6.90337 7.11501 6.39068 7.73972 6.08793 8.47063C5.78518 9.20153 5.70597 10.0058 5.86031 10.7817C6.01465 11.5576 6.39561 12.2704 6.95502 12.8298C7.51443 13.3892 8.22716 13.7702 9.00309 13.9245C9.77901 14.0788 10.5833 13.9996 11.3142 13.6969C12.0451 13.3941 12.6698 12.8814 13.1093 12.2236C13.5489 11.5658 13.7834 10.7925 13.7834 10.0014C13.7834 8.94049 13.362 7.92308 12.6119 7.17293C11.8617 6.42279 10.8443 6.00136 9.78345 6.00136ZM9.78345 12.0014C9.38789 12.0014 9.0012 11.8841 8.67231 11.6643C8.34341 11.4445 8.08706 11.1322 7.93569 10.7667C7.78431 10.4013 7.74471 9.99914 7.82188 9.61118C7.89905 9.22322 8.08953 8.86685 8.36923 8.58715C8.64894 8.30744 9.0053 8.11696 9.39327 8.03979C9.78123 7.96262 10.1834 8.00223 10.5488 8.1536C10.9143 8.30498 11.2266 8.56132 11.4464 8.89022C11.6661 9.21912 11.7834 9.6058 11.7834 10.0014C11.7834 10.5318 11.5727 11.0405 11.1977 11.4156C10.8226 11.7906 10.3139 12.0014 9.78345 12.0014Z" fill="#1F2937"/>
</svg>
