<svg width="26" height="28" viewBox="0 0 26 28" fill="none" xmlns="http://www.w3.org/2000/svg">
<g filter="url(#filter0_d_80_499)">
<path d="M9.41088 16.825L12.5609 14.925L15.7109 16.85L14.8859 13.25L17.6609 10.85L14.0109 10.525L12.5609 7.12495L11.1109 10.5L7.46088 10.825L10.2359 13.25L9.41088 16.825ZM12.5609 17.275L8.41088 19.775C8.22754 19.8916 8.03588 19.9416 7.83588 19.9249C7.63588 19.9083 7.46088 19.8416 7.31088 19.725C7.16088 19.6083 7.04421 19.4626 6.96088 19.288C6.87754 19.1133 6.86088 18.9173 6.91088 18.7L8.01088 13.975L4.33588 10.8C4.16921 10.65 4.06521 10.479 4.02388 10.287C3.98254 10.095 3.99488 9.90762 4.06088 9.72495C4.12688 9.54228 4.22688 9.39228 4.36088 9.27495C4.49488 9.15762 4.67821 9.08262 4.91088 9.04995L9.76088 8.62495L11.6359 4.17495C11.7192 3.97495 11.8485 3.82495 12.0239 3.72495C12.1992 3.62495 12.3782 3.57495 12.5609 3.57495C12.7435 3.57495 12.9225 3.62495 13.0979 3.72495C13.2732 3.82495 13.4025 3.97495 13.4859 4.17495L15.3609 8.62495L20.2109 9.04995C20.4442 9.08328 20.6275 9.15828 20.7609 9.27495C20.8942 9.39162 20.9942 9.54162 21.0609 9.72495C21.1275 9.90829 21.1402 10.096 21.0989 10.288C21.0575 10.48 20.9532 10.6506 20.7859 10.8L17.1109 13.975L18.2109 18.7C18.2609 18.9166 18.2442 19.1126 18.1609 19.288C18.0775 19.4633 17.9609 19.609 17.8109 19.725C17.6609 19.841 17.4859 19.9076 17.2859 19.9249C17.0859 19.9423 16.8942 19.8923 16.7109 19.775L12.5609 17.275Z" fill="#F97316"/>
</g>
<defs>
<filter id="filter0_d_80_499" x="-3.43915" y="0" width="32" height="32" filterUnits="userSpaceOnUse" color-interpolation-filters="sRGB">
<feFlood flood-opacity="0" result="BackgroundImageFix"/>
<feColorMatrix in="SourceAlpha" type="matrix" values="0 0 0 0 0 0 0 0 0 0 0 0 0 0 0 0 0 0 127 0" result="hardAlpha"/>
<feOffset dy="4"/>
<feGaussianBlur stdDeviation="2"/>
<feComposite in2="hardAlpha" operator="out"/>
<feColorMatrix type="matrix" values="0 0 0 0 0 0 0 0 0 0 0 0 0 0 0 0 0 0 0.25 0"/>
<feBlend mode="normal" in2="BackgroundImageFix" result="effect1_dropShadow_80_499"/>
<feBlend mode="normal" in="SourceGraphic" in2="effect1_dropShadow_80_499" result="shape"/>
</filter>
</defs>
</svg>
