<svg width="24" height="24" viewBox="0 0 24 24" fill="none" xmlns="http://www.w3.org/2000/svg">
<g clip-path="url(#clip0_80_518)">
<path fill-rule="evenodd" clip-rule="evenodd" d="M4.50001 3L5.29501 3.795L8.67001 7.17C8.87504 7.38208 8.98857 7.66621 8.98615 7.96118C8.98373 8.25615 8.86554 8.53837 8.65706 8.74706C8.44857 8.95574 8.16646 9.07419 7.87149 9.07689C7.57652 9.07959 7.29229 8.96633 7.08001 8.7615L5.62501 7.3065V19.8765C5.62501 20.1749 5.50649 20.461 5.29551 20.672C5.08453 20.883 4.79838 21.0015 4.50001 21.0015C4.20165 21.0015 3.9155 20.883 3.70452 20.672C3.49354 20.461 3.37501 20.1749 3.37501 19.8765V7.305L1.92001 8.76C1.70675 8.95872 1.42468 9.0669 1.13323 9.06176C0.841778 9.05662 0.563701 8.93855 0.357581 8.73243C0.151462 8.52631 0.0333938 8.24824 0.0282514 7.95678C0.0231091 7.66533 0.131294 7.38326 0.330014 7.17L3.70501 3.795L4.50001 3ZM12 10.125C12 10.746 12.504 11.25 13.125 11.25H15.375C15.6734 11.25 15.9595 11.1315 16.1705 10.9205C16.3815 10.7095 16.5 10.4234 16.5 10.125C16.5 9.82663 16.3815 9.54048 16.1705 9.3295C15.9595 9.11853 15.6734 9 15.375 9H13.125C12.8266 9 12.5405 9.11853 12.3295 9.3295C12.1185 9.54048 12 9.82663 12 10.125ZM13.125 16.125C12.8266 16.125 12.5405 16.0065 12.3295 15.7955C12.1185 15.5845 12 15.2984 12 15C12 14.7016 12.1185 14.4155 12.3295 14.2045C12.5405 13.9935 12.8266 13.875 13.125 13.875H19.875C20.1734 13.875 20.4595 13.9935 20.6705 14.2045C20.8815 14.4155 21 14.7016 21 15C21 15.2984 20.8815 15.5845 20.6705 15.7955C20.4595 16.0065 20.1734 16.125 19.875 16.125H13.125ZM13.125 21C12.8266 21 12.5405 20.8815 12.3295 20.6705C12.1185 20.4595 12 20.1734 12 19.875C12 19.5766 12.1185 19.2905 12.3295 19.0795C12.5405 18.8685 12.8266 18.75 13.125 18.75H22.875C23.1734 18.75 23.4595 18.8685 23.6705 19.0795C23.8815 19.2905 24 19.5766 24 19.875C24 20.1734 23.8815 20.4595 23.6705 20.6705C23.4595 20.8815 23.1734 21 22.875 21H13.125Z" fill="#1F2937"/>
</g>
<defs>
<clipPath id="clip0_80_518">
<rect width="24" height="24" fill="white"/>
</clipPath>
</defs>
</svg>
