<svg width="24" height="24" viewBox="0 0 24 24" fill="none" xmlns="http://www.w3.org/2000/svg">
<g clip-path="url(#clip0_80_523)">
<path fill-rule="evenodd" clip-rule="evenodd" d="M4.50001 21L5.29501 20.205L8.67001 16.83C8.87504 16.618 8.98857 16.3338 8.98615 16.0389C8.98373 15.7439 8.86554 15.4617 8.65706 15.253C8.44857 15.0443 8.16646 14.9258 7.87149 14.9231C7.57652 14.9204 7.29229 15.0337 7.08001 15.2385L5.62501 16.6935V4.12354C5.62501 3.82517 5.50649 3.53902 5.29551 3.32804C5.08453 3.11706 4.79838 2.99854 4.50001 2.99854C4.20165 2.99854 3.9155 3.11706 3.70452 3.32804C3.49354 3.53902 3.37501 3.82517 3.37501 4.12354V16.6935L1.92001 15.2385C1.70675 15.0398 1.42468 14.9316 1.13323 14.9368C0.841778 14.9419 0.563701 15.06 0.357581 15.2661C0.151462 15.4722 0.0333938 15.7503 0.0282514 16.0418C0.0231091 16.3332 0.131294 16.6153 0.330014 16.8285L3.70501 20.2035L4.50001 21ZM13.125 3.00004C12.8266 3.00004 12.5405 3.11856 12.3295 3.32954C12.1185 3.54052 12 3.82667 12 4.12504C12 4.4234 12.1185 4.70955 12.3295 4.92053C12.5405 5.13151 12.8266 5.25004 13.125 5.25004H22.875C23.1734 5.25004 23.4595 5.13151 23.6705 4.92053C23.8815 4.70955 24 4.4234 24 4.12504C24 3.82667 23.8815 3.54052 23.6705 3.32954C23.4595 3.11856 23.1734 3.00004 22.875 3.00004H13.125ZM13.125 7.87504C12.8266 7.87504 12.5405 7.99356 12.3295 8.20454C12.1185 8.41552 12 8.70167 12 9.00004C12 9.2984 12.1185 9.58455 12.3295 9.79553C12.5405 10.0065 12.8266 10.125 13.125 10.125H19.875C20.1734 10.125 20.4595 10.0065 20.6705 9.79553C20.8815 9.58455 21 9.2984 21 9.00004C21 8.70167 20.8815 8.41552 20.6705 8.20454C20.4595 7.99356 20.1734 7.87504 19.875 7.87504H13.125ZM12 13.875C12 13.5767 12.1185 13.2905 12.3295 13.0795C12.5405 12.8686 12.8266 12.75 13.125 12.75H15.375C15.6734 12.75 15.9595 12.8686 16.1705 13.0795C16.3815 13.2905 16.5 13.5767 16.5 13.875C16.5 14.1734 16.3815 14.4596 16.1705 14.6705C15.9595 14.8815 15.6734 15 15.375 15H13.125C12.8266 15 12.5405 14.8815 12.3295 14.6705C12.1185 14.4596 12 14.1734 12 13.875Z" fill="#1F2937"/>
</g>
<defs>
<clipPath id="clip0_80_523">
<rect width="24" height="24" fill="white"/>
</clipPath>
</defs>
</svg>
